<?xml version="1.0" encoding="UTF-8" standalone="no"?>
<!DOCTYPE svg PUBLIC "-//W3C//DTD SVG 20010904//EN" "http://www.w3.org/TR/2001/REC-SVG-20010904/DTD/svg10.dtd">
<svg version="1.0" xmlns="http://www.w3.org/2000/svg" width="820.000000pt" height="632.000000pt" viewBox="0 0 820.000000 632.000000" preserveAspectRatio="xMidYMid meet">
<metadata>
Created by potrace 1.16, written by Peter Selinger 2001-2019
</metadata>
<g transform="translate(0.000000,632.000000) scale(0.100000,-0.100000)" fill="#6c63ff" stroke="none">
<path d="M575 5900 c-196 -40 -370 -196 -437 -388 l-23 -67 0 -2405 0 -2405 23 -72 c44 -142 159 -276 294 -344 95 -48 162 -59 370 -59 l188 0 2 2140 3 2140 425 -303 c1831 -1307 2661 -1898 2674 -1903 10 -4 201 126 533 364 1895 1352 2559 1825 2570 1829 11 4 13 -418 13 -2131 l0 -2136 26 -6 c46 -12 365 4 424 20 158 44 306 166 373 307 67 141 62 -49 61 2554 -1 2184 -2 2375 -17 2434 -44 164 -162 309 -310 380 -119 57 -234 77 -284 48 -11 -6 -284 -201 -605 -431 -515 -370 -1222 -878 -2412 -1730 -198 -141 -365 -255 -372 -252 -7 3 -260 182 -561 397 -301 216 -944 676 -1428 1023 -1553 1112 -1401 1006 -1448 1005 -23 -1 -60 -5 -82 -9z"/>
</g>
</svg>